<?xml version="1.0" encoding="utf-8"?>
<!-- Generator: Adobe Illustrator 18.1.1, SVG Export Plug-In . SVG Version: 6.00 Build 0)  -->
<svg version="1.1" id="Layer_3" xmlns="http://www.w3.org/2000/svg" xmlns:xlink="http://www.w3.org/1999/xlink" x="0px" y="0px"
	 viewBox="0 0 559.8 223" enable-background="new 0 0 559.8 223" xml:space="preserve">
<g>
	<defs>
		<polygon id="SVGID_1_" points="542.3,217.1 2.6,254.1 -33.2,-23.1 506.5,-60.1 		"/>
	</defs>
	<clipPath id="SVGID_2_">
		<use xlink:href="#SVGID_1_"  overflow="visible"/>
	</clipPath>
	
		<line clip-path="url(#SVGID_2_)" fill="none" stroke="#009890" stroke-linecap="round" stroke-linejoin="round" stroke-miterlimit="10" stroke-dasharray="1,2" x1="72.8" y1="91.6" x2="347.7" y2="91.6"/>
	<g id="XMLID_1_" clip-path="url(#SVGID_2_)">
		<g>
			<path fill="#DDB2C1" d="M495.3,107.6c3.5,14.7-20.9,27.8-51.8,28.4c1.5,1.3,2.4,3.2,2.9,5.4c1.4,6.7-2,16.2-8.3,19.3
				c-24.2,12.1-74.2-0.5-101-4.3c-29.9-4.3-67.3-1.9-76.4,12.4c-1.2-4.6-11.8-8.1-19.1-11.1c-25.8-10.7-66.9,6-95.5,6.2
				c-16.1,0.1-30,2.4-43.7-1.9c-6-1.9-14.4-7.1-15.5-14.2c-0.6-4.1,1.9-8.1,1.8-11.7c-24.9-0.2-61.4-12.5-63.7-28.4
				c-2.3-16.3,21.5-29.1,48.1-31.7c2.1-0.2,4.3-0.4,6.5-0.4c-14.3-7.7-10.5-22.5,10-27.2c13.4-3.1,25.5-1.8,37.1,1
				c17.2,4.2,33.6,11.7,52,13.2c14,1.2,30.8,1.4,43.7-1.9c17-4.3,30.9-5.8,37.9-17.4l1.4,2l0.5-0.2c3.5,5.4,7.8,4.6,16.6,9.4
				c24.8,13.6,66.4,0.8,93.7-2.5c19.8-2.4,47.1-10.9,64.6-4.3c10.1,3.8,11.7,11.9,8.8,18.9c-1.4,3.4-3.9,6.5-7,8.9
				C465,79.5,489,80.4,495.3,107.6z"/>
			<path fill="#DDB2C1" d="M459.5,70c29,5.6,58.7,16.2,56.8,40.9c-1.6,20.9-20.7,33-56.6,38.8c6.9,7.5,4.6,17.2-4.7,23.1
				c-26.9,16.9-82.8,1.2-112.6-4.2c-25.3-4.5-53.9-2.4-70.2,9.6c4.1,2.6,6.8,6.7,6.8,11.3c0,8-8.2,14.5-18.3,14.5
				c-10.1,0-18.3-6.5-18.3-14.5c0-5.4,3.7-10.1,9.2-12.6l4.5,0.5c-2.9,3.4-4.6,7.4-4.6,12c0,14.9,23.4,9.6,18.3-3.5
				c-1.7-4.3-5.2-8.6-9.8-12.3c1.2-1,2.5-1.8,4-2.7c17.2-10.1,48.3-11.9,67.7-9.3c30.3,4.2,135.1,25.3,118.7-20.3
				c78.6-3.5,68.4-65.4-1.5-68.2c0.3-2,0.9-4,1.7-5.9c3.5-8.8,9.3-16.7-7.2-23.5c-14.9-6.2-33.8-4-49.9-1.2
				c-32,5.5-72.9,18.7-105.5,10.2c-6.2-1.6-16.6-5.8-25.3-11c-1-0.6-1.9-1.2-2.8-1.8c5.7-4,11.3-8.7,13.8-12.5c1-1.5,1.2-3,0.8-4.3
				l3.8-0.5c0.3,1.1,0.5,2.3,0.5,3.4c0,5.3-3.5,9.9-8.8,12.4c0.9,0.9,2,1.8,3.3,2.7c27.6,19,78.2-1.1,108.7-5.6
				c22.1-3.3,52.7-5,72.2,4.2C470.9,47.7,470,59.8,459.5,70z"/>
			<path fill="#A4D1D9" d="M443.5,136c30.9-0.6,55.3-13.7,51.8-28.4C489,80.4,465,79.5,438.9,75.5c3.1-2.4,5.5-5.5,7-8.9l4.8,0.7
				c-0.8,1.9-1.4,3.9-1.7,5.9c69.8,2.9,80.1,64.8,1.5,68.2l-4.1,0.1C445.9,139.3,445,137.4,443.5,136z"/>
			<path fill="#A4D1D9" d="M262.3,45.1l-0.5,0.2l-1.4-2c0.1-0.2,0.2-0.3,0.3-0.5l2.2-1c8.7,5.2,19.1,9.4,25.3,11
				c32.6,8.5,73.5-4.7,105.5-10.2c16.1-2.8,35-5,49.9,1.2c16.5,6.8,10.7,14.7,7.2,23.5l-4.8-0.7c3-7.1,1.3-15.1-8.8-18.9
				c-17.5-6.6-44.7,2-64.6,4.3c-27.3,3.2-68.9,16-93.7,2.5C270.1,49.7,265.7,50.5,262.3,45.1z"/>
			<path fill="#A4D1D9" d="M450.4,141.4c16.4,45.5-88.4,24.4-118.7,20.3c-19.4-2.7-50.5-0.8-67.7,9.3l-3.4-2.1
				c9.1-14.2,46.5-16.6,76.4-12.4c26.7,3.8,76.8,16.4,101,4.3c6.3-3.2,9.7-12.6,8.3-19.3L450.4,141.4z"/>
			<path fill="#DDB2C1" d="M278.5,22.7l-3.8,0.5C273,17,259.9,13,252.3,18.7c-8.7,6.6-2.3,14.6,7.8,21.3c-2.6,1.8-5.2,3.5-7.6,4.8
				l-2.1,0.7c-1,0.6-1.9,1.1-2.9,1.6l-4.4-1.3c3.9-2,6.9-4.3,9.1-7c-5.7-2.4-9.6-7.2-9.6-12.8c0-8,8.2-14.5,18.3-14.5
				C269.4,11.6,276.5,16.3,278.5,22.7z"/>
			<path fill="#A4D1D9" d="M274.6,23.1c0.4,1.4,0.2,2.9-0.8,4.3c-2.5,3.8-8.1,8.5-13.8,12.5c-10.1-6.7-16.4-14.7-7.8-21.3
				C259.9,13,273,17,274.6,23.1z"/>
			<path fill="#A4D1D9" d="M269.9,185.9c5.1,13.1-18.3,18.4-18.3,3.5c0-4.6,1.7-8.6,4.6-12c1.1-1.3,2.5-2.6,4-3.7
				C264.7,177.2,268.2,181.6,269.9,185.9z"/>
			<path fill="#A4D1D9" d="M260.7,168.8l3.4,2.1c-1.4,0.8-2.7,1.7-4,2.7c-4.1-3.3-9.1-6-14.3-7.8c-31.3-10.5-65.4,2.6-97.5,3.6
				c-30.5,1-78.3,0.7-67.1-28.1c-37.4-2.2-61.7-13.4-64.4-35.9C14.4,86.6,35,77.9,59.7,75c3.1-0.4,6.2-0.6,9.3-0.8l4.1,1.8
				c-26.6,2.6-50.4,15.4-48.1,31.7c2.3,15.9,38.7,28.2,63.7,28.4c0.1,3.6-2.4,7.6-1.8,11.7c1.1,7.1,9.4,12.3,15.5,14.2
				c13.7,4.3,27.6,1.9,43.7,1.9c28.6-0.1,69.7-16.8,95.5-6.2C248.8,160.7,259.5,164.2,260.7,168.8z"/>
			<path fill="#A4D1D9" d="M260.3,43.3c-7,11.6-20.9,13.1-37.9,17.4c-12.8,3.2-29.7,3-43.7,1.9c-18.4-1.6-34.8-9.1-52-13.2l1.8-3.3
				c9.9,2.6,19.8,5.7,29.3,7.9c22.6,5.1,63.8,6.3,89.5-6.8c1-0.5,2-1,2.9-1.6l2.1-0.7c2.4-1.3,5-3,7.6-4.8c0.9,0.6,1.9,1.2,2.8,1.8
				l-2.2,1C260.5,42.9,260.5,43.1,260.3,43.3z"/>
			<path fill="#DDB2C1" d="M260.1,173.5c-1.5,1.2-2.8,2.4-4,3.7l-4.5-0.5c-1.4-1.2-2.9-2.3-4.7-3.2c-28.8-15-80.4,5.2-112.3,5.4
				c-17.9,0.1-35.7,1-50.9-4.9c-6.7-2.6-14.2-8.3-17.4-13.3c-3.3-5.2,0.7-10.3,0.7-15.4c-27.8-0.3-59.4-11.6-61.9-33.8
				C2.4,86.9,26.6,73.5,59,72.1l0.7,2.9c-24.7,2.9-45.3,11.6-43,30.3c2.8,22.5,27.1,33.8,64.4,35.9c-11.1,28.8,36.6,29.1,67.1,28.1
				c32.2-1.1,66.2-14.1,97.5-3.6C251.1,167.5,256,170.3,260.1,173.5z"/>
			<path fill="#DDB2C1" d="M243,45.8l4.4,1.3c-25.7,13.2-66.9,12-89.5,6.8c-9.6-2.2-19.4-5.3-29.3-7.9c-18.9-4.9-38-7.9-55.9,1.5
				C63.4,52.4,61.9,67,69,74.2c-3.1,0.2-6.3,0.5-9.3,0.8L59,72.1C43,61.3,45.5,44.6,68.3,38c37-10.8,74.3,7.4,108.6,11.1
				c15.6,1.7,45.7,3.7,60-0.8C239.2,47.5,241.2,46.7,243,45.8z"/>
			<path fill="#A4D1D9" d="M128.6,46l-1.8,3.3c-11.6-2.8-23.7-4.1-37.1-1c-20.5,4.7-24.3,19.5-10,27.2c-2.2,0.1-4.3,0.2-6.5,0.4
				L69,74.2c-7.1-7.2-5.6-21.8,3.7-26.7C90.6,38.1,109.7,41,128.6,46z"/>
		</g>
		<g>
			<path fill="none" stroke="#40B09A" stroke-miterlimit="10" d="M250.3,45.5c-1,0.6-1.9,1.1-2.9,1.6c-25.7,13.2-66.9,12-89.5,6.8
				c-9.6-2.2-19.4-5.3-29.3-7.9c-18.9-4.9-38-7.9-55.9,1.5C63.4,52.4,61.9,67,69,74.2c-3.1,0.2-6.3,0.5-9.3,0.8
				c-24.7,2.9-45.3,11.6-43,30.3c2.8,22.5,27.1,33.8,64.4,35.9c-11.1,28.8,36.6,29.1,67.1,28.1c32.2-1.1,66.2-14.1,97.5-3.6
				c5.3,1.8,10.2,4.5,14.3,7.8c4.6,3.7,8.1,8,9.8,12.3c5.1,13.1-18.3,18.4-18.3,3.5c0-4.6,1.7-8.6,4.6-12c1.1-1.3,2.5-2.6,4-3.7
				c1.2-1,2.5-1.8,4-2.7c17.2-10.1,48.3-11.9,67.7-9.3c30.3,4.2,135.1,25.3,118.7-20.3c78.6-3.5,68.4-65.4-1.5-68.2
				c0.3-2,0.9-4,1.7-5.9c3.5-8.8,9.3-16.7-7.2-23.5c-14.9-6.2-33.8-4-49.9-1.2c-32,5.5-72.9,18.7-105.5,10.2
				c-6.2-1.6-16.6-5.8-25.3-11c-1-0.6-1.9-1.2-2.8-1.8c-10.1-6.7-16.4-14.7-7.8-21.3c7.6-5.8,20.7-1.7,22.4,4.4
				c0.4,1.4,0.2,2.9-0.8,4.3c-2.5,3.8-8.1,8.5-13.8,12.5c-2.6,1.8-5.2,3.5-7.6,4.8"/>
			
				<path fill="none" stroke="#009890" stroke-linecap="round" stroke-linejoin="round" stroke-miterlimit="10" stroke-dasharray="1,2" d="
				M260.7,42.8c-0.1,0.2-0.2,0.3-0.3,0.5c-7,11.6-20.9,13.1-37.9,17.4c-12.8,3.2-29.7,3-43.7,1.9c-18.4-1.6-34.8-9.1-52-13.2
				c-11.6-2.8-23.7-4.1-37.1-1c-20.5,4.7-24.3,19.5-10,27.2c-2.2,0.1-4.3,0.2-6.5,0.4c-26.6,2.6-50.4,15.4-48.1,31.7
				c2.3,15.9,38.7,28.2,63.7,28.4c0.1,3.6-2.4,7.6-1.8,11.7c1.1,7.1,9.4,12.3,15.5,14.2c13.7,4.3,27.6,1.9,43.7,1.9
				c28.6-0.1,69.7-16.8,95.5-6.2c7.3,3,17.9,6.5,19.1,11.1c9.1-14.2,46.5-16.6,76.4-12.4c26.7,3.8,76.8,16.4,101,4.3
				c6.3-3.2,9.7-12.6,8.3-19.3c-0.4-2.2-1.4-4.1-2.9-5.4c30.9-0.6,55.3-13.7,51.8-28.4C489,80.4,465,79.5,438.9,75.5
				c3.1-2.4,5.5-5.5,7-8.9c3-7.1,1.3-15.1-8.8-18.9c-17.5-6.6-44.7,2-64.6,4.3c-27.3,3.2-68.9,16-93.7,2.5
				c-8.8-4.8-13.1-3.9-16.6-9.4c-0.1-0.1-0.1-0.2-0.2-0.3"/>
		</g>
	</g>
</g>
</svg>
