<?xml version="1.0" standalone="no"?>
<!DOCTYPE svg PUBLIC "-//W3C//DTD SVG 20010904//EN"
 "http://www.w3.org/TR/2001/REC-SVG-20010904/DTD/svg10.dtd">
<svg version="1.0" xmlns="http://www.w3.org/2000/svg"
 width="1250.000000pt" height="230.000000pt" viewBox="0 0 1250.000000 230.000000"
 preserveAspectRatio="xMidYMid meet">
<metadata>
Created by potrace 1.11, written by Peter Selinger 2001-2013
</metadata>
<g transform="translate(0.000000,230.000000) scale(0.100000,-0.100000)"
fill="#000000" stroke="none">
<path d="M170 2174 l0 -66 40 35 c22 19 66 48 98 65 l57 31 -97 1 -98 0 0 -66z"/>
<path d="M1065 2197 c98 -51 205 -153 236 -223 12 -26 24 -76 27 -111 l5 -64
17 29 c61 99 190 146 301 107 100 -36 159 -114 167 -224 l4 -68 47 -12 c34 -9
60 -26 99 -67 39 -40 57 -52 66 -45 7 6 37 17 68 25 47 12 66 12 110 2 29 -7
62 -17 74 -24 36 -19 102 -99 115 -138 6 -22 13 -115 16 -209 5 -213 5 -215
43 -215 38 0 38 2 43 215 3 94 10 187 16 209 13 39 79 119 115 138 12 7 45 17
74 24 44 10 63 10 110 -2 31 -8 62 -19 69 -25 9 -8 14 -4 19 18 11 47 61 91
116 102 63 14 454 14 538 0 186 -30 350 -128 456 -272 l43 -58 15 35 c20 49
60 100 91 116 l25 14 -49 43 c-174 152 -65 436 167 436 73 -1 124 -22 178 -77
55 -55 74 -98 74 -175 0 -75 -20 -122 -75 -175 l-51 -49 44 -41 c35 -32 45
-37 52 -25 163 264 448 361 718 243 62 -27 158 -100 192 -145 l23 -32 22 74
c104 355 450 615 828 622 l97 2 0 32 0 33 -1283 0 -1282 0 -78 -44 c-43 -25
-108 -69 -145 -99 l-67 -54 -100 -9 c-140 -11 -168 -10 -270 10 -49 10 -99 19
-110 22 -18 3 -75 67 -130 145 l-20 29 -970 0 -970 -1 80 -42z"/>
<path d="M494 2210 c-271 -71 -424 -265 -424 -538 0 -110 25 -200 75 -265 31
-41 58 -58 228 -143 343 -173 378 -198 363 -259 -8 -33 -46 -48 -103 -39 -36
5 -55 17 -107 69 -77 76 -136 100 -230 93 -143 -12 -233 -109 -224 -243 12
-185 203 -361 436 -402 252 -44 495 23 654 181 105 104 158 255 137 386 -25
156 -133 277 -354 398 -356 195 -400 228 -361 271 15 16 31 21 72 21 46 0 55
-4 78 -31 15 -17 33 -44 41 -60 24 -44 127 -90 206 -91 95 0 146 19 206 77 58
57 77 105 77 200 -1 81 -30 143 -99 210 -66 65 -203 136 -319 165 -103 26
-253 26 -352 0z"/>
<path d="M6205 2099 c-254 -37 -491 -210 -605 -443 -61 -123 -79 -191 -87
-318 -30 -494 377 -898 871 -865 210 15 392 102 544 260 56 59 72 85 95 150 6
15 18 6 72 -51 196 -208 499 -216 696 -17 96 97 139 199 139 334 l1 76 19 -49
c11 -27 32 -62 47 -78 15 -17 103 -67 194 -114 189 -95 219 -116 219 -149 0
-60 -88 -56 -150 6 -71 72 -157 88 -240 47 -63 -32 -93 -86 -86 -154 6 -65 26
-104 88 -170 158 -167 490 -166 677 2 68 61 103 134 109 230 4 68 2 79 -27
139 -43 87 -99 133 -292 241 -88 49 -169 97 -180 107 -26 24 -21 49 12 61 41
14 74 0 103 -44 36 -55 89 -80 168 -80 118 0 191 72 192 189 0 94 -55 166
-176 227 -158 80 -314 84 -464 13 -127 -60 -201 -172 -211 -319 l-6 -79 -22
63 c-58 166 -203 287 -382 318 -276 47 -553 -182 -553 -457 l0 -65 -42 27
c-33 23 -55 28 -115 32 -92 4 -145 -14 -205 -71 -75 -70 -154 -124 -202 -138
-139 -39 -305 40 -373 178 -24 50 -28 69 -28 147 0 107 19 157 87 231 92 101
239 133 356 79 30 -14 84 -54 121 -89 82 -80 135 -105 219 -106 70 0 120 20
163 67 48 51 63 92 63 168 0 89 -19 128 -112 222 -194 196 -436 280 -697 242z
m1294 -844 c65 -33 76 -131 21 -187 -85 -84 -217 25 -165 136 29 60 87 81 144
51z"/>
<path d="M7422 1188 c-28 -28 -10 -78 29 -78 23 0 30 6 35 27 12 46 -33 82
-64 51z"/>
<path d="M6716 2079 c124 -65 291 -214 334 -299 27 -54 43 -135 35 -181 l-7
-42 44 36 c144 118 369 143 556 61 62 -27 158 -100 192 -146 l23 -31 20 39
c71 139 218 229 407 249 179 18 430 -96 500 -228 22 -42 26 -44 49 -35 58 22
145 7 188 -33 l21 -21 69 25 c140 51 263 53 387 7 63 -24 162 -93 194 -136
l21 -29 1 111 c0 61 -5 136 -11 168 -13 72 -5 108 32 151 49 55 183 72 303 38
47 -13 72 -28 108 -64 75 -75 78 -95 78 -481 l0 -328 110 0 109 0 -18 43
c-111 259 -31 552 192 705 133 92 314 110 473 46 l62 -25 37 25 c75 51 179 43
234 -19 36 -41 51 -90 51 -169 0 -47 3 -56 13 -48 7 6 38 18 69 26 47 12 66
12 110 2 29 -7 62 -17 74 -24 36 -19 102 -99 115 -138 6 -22 13 -115 16 -209
5 -213 5 -215 43 -215 38 0 38 2 43 215 3 96 10 188 17 210 18 57 103 140 160
155 51 14 105 16 138 6 l22 -7 0 310 0 311 -2836 0 -2836 0 58 -31z"/>
<path d="M4242 1878 c-51 -17 -109 -87 -118 -143 -19 -127 76 -225 206 -213
156 15 222 198 111 309 -53 53 -125 70 -199 47z"/>
<path d="M1485 1864 c-76 -40 -104 -95 -105 -206 l0 -78 -30 0 c-36 0 -96 -24
-123 -48 -31 -28 -57 -88 -57 -131 0 -98 66 -175 161 -187 l48 -6 3 -237 3
-238 27 -40 c65 -99 213 -110 293 -22 18 21 38 55 44 76 6 21 11 131 11 249
l0 211 39 6 c98 13 161 76 169 171 4 56 -17 114 -55 148 -26 24 -87 48 -121
48 l-29 0 -5 83 c-6 104 -30 156 -91 192 -52 30 -134 34 -182 9z"/>
<path d="M9842 1720 c-39 -16 -46 -50 -34 -142 8 -53 12 -247 12 -531 0 -481
-1 -475 52 -524 53 -50 77 -53 390 -53 277 0 294 1 336 21 104 51 136 198 60
285 -56 64 -73 68 -280 72 l-188 4 0 366 c0 352 -1 367 -21 410 -13 26 -38 54
-62 70 -36 24 -51 27 -141 29 -56 2 -111 -2 -124 -7z"/>
<path d="M1298 1670 c-7 -24 -3 -38 8 -28 3 4 4 17 2 30 l-3 23 -7 -25z"/>
<path d="M10840 1666 c-163 -35 -301 -170 -346 -341 -16 -59 -18 -192 -3 -255
27 -118 124 -247 227 -303 139 -76 329 -74 440 3 l43 30 26 -30 c63 -75 155
-80 196 -10 15 25 17 73 17 430 0 427 -2 444 -49 470 -49 26 -131 4 -169 -45
l-19 -24 -55 29 c-103 56 -198 70 -308 46z m169 -371 c39 -19 65 -77 56 -123
-9 -50 -57 -92 -105 -92 -106 0 -148 155 -56 211 37 23 67 24 105 4z"/>
<path d="M10924 1216 c-10 -41 4 -66 36 -66 24 0 31 5 36 27 9 34 -6 57 -39
61 -21 3 -28 -2 -33 -22z"/>
<path d="M4908 1624 c-82 -19 -153 -58 -214 -116 -106 -100 -154 -211 -154
-352 0 -145 44 -249 147 -347 195 -186 486 -184 674 6 98 99 139 199 139 341
0 312 -291 542 -592 468z m161 -369 c65 -33 76 -131 21 -187 -85 -84 -217 25
-165 136 29 60 87 81 144 51z"/>
<path d="M4992 1188 c-28 -28 -10 -78 29 -78 23 0 30 6 35 27 12 46 -33 82
-64 51z"/>
<path d="M3015 1571 c-12 -5 -25 -15 -31 -22 -6 -9 -8 -205 -4 -554 4 -478 7
-543 22 -570 24 -44 70 -84 109 -95 54 -16 402 -12 484 5 286 60 495 320 495
615 0 272 -177 515 -440 602 -59 20 -89 22 -340 25 -151 1 -284 -1 -295 -6z
m547 -393 c204 -87 200 -368 -6 -459 -23 -10 -76 -21 -118 -25 l-78 -7 0 263
0 262 78 -7 c42 -4 98 -16 124 -27z"/>
<path d="M3430 950 l0 -193 42 7 c118 19 194 115 174 220 -14 76 -85 138 -174
152 l-42 7 0 -193z"/>
<path d="M6261 1549 c-119 -36 -191 -137 -191 -266 1 -156 107 -263 260 -263
57 0 73 4 116 31 27 17 75 56 106 86 78 73 133 97 228 98 41 0 86 -2 99 -5 22
-5 25 0 36 45 6 28 15 59 18 71 l7 21 -57 -20 c-71 -23 -157 -19 -226 11 -25
11 -77 50 -115 85 -38 36 -88 75 -111 87 -50 25 -123 33 -170 19z"/>
<path d="M1062 1497 l-43 -10 43 -28 c29 -19 44 -25 46 -16 2 6 7 24 12 40 10
30 9 30 -58 14z"/>
<path d="M2108 1480 c-44 -13 -87 -49 -108 -90 -18 -36 -20 -60 -20 -257 0
-236 7 -282 56 -379 112 -221 384 -298 612 -174 l54 29 25 -30 c63 -74 155
-79 196 -9 15 25 17 71 17 404 0 358 -1 379 -20 416 -53 103 -191 128 -282 52
-58 -49 -68 -87 -68 -280 0 -188 -8 -225 -53 -255 -33 -22 -86 -22 -116 -1
-43 31 -51 70 -51 256 0 147 -3 179 -19 213 -41 89 -133 132 -223 105z"/>
<path d="M8894 1440 c-12 -4 -31 -21 -43 -36 -21 -27 -21 -30 -21 -561 0 -589
-3 -562 64 -621 74 -65 174 -62 246 7 47 45 60 89 60 207 l0 91 40 -19 c86
-43 229 -30 329 29 96 56 175 165 206 284 8 30 15 95 15 145 0 146 -42 256
-137 355 -128 134 -334 164 -518 75 l-68 -34 -26 30 c-40 49 -99 68 -147 48z
m473 -380 c63 -38 66 -142 6 -190 -88 -69 -207 40 -158 144 30 63 93 82 152
46z"/>
<path d="M9282 998 c-28 -28 -10 -78 28 -78 32 0 46 25 36 66 -7 26 -43 33
-64 12z"/>
<path d="M4235 1421 c-49 -22 -91 -69 -105 -119 -8 -25 -10 -150 -8 -373 l3
-336 27 -40 c65 -99 213 -110 293 -22 18 21 38 55 44 76 15 52 14 645 0 698
-21 74 -107 135 -189 135 -14 0 -43 -9 -65 -19z"/>
<path d="M11598 1430 c-44 -13 -87 -49 -108 -90 -18 -36 -20 -60 -20 -257 0
-236 7 -282 56 -379 33 -66 103 -141 164 -177 87 -50 225 -71 313 -46 47 13
57 6 31 -22 -18 -20 -25 -21 -120 -14 -118 8 -152 -2 -202 -59 -38 -43 -46
-71 -40 -136 9 -94 79 -152 205 -170 96 -14 160 -12 227 5 137 36 231 103 287
207 l34 63 3 472 c3 460 2 473 -18 513 -53 103 -191 129 -282 52 -58 -49 -68
-87 -68 -280 0 -188 -8 -225 -53 -255 -33 -22 -86 -22 -116 -1 -43 31 -51 70
-51 256 0 147 -3 179 -19 213 -41 89 -133 132 -223 105z"/>
<path d="M170 1229 l0 -61 28 7 c15 5 53 13 85 19 l58 11 -86 43 -85 42 0 -61z"/>
<path d="M8709 1177 l-46 -22 48 -38 49 -37 0 60 c0 33 -1 60 -2 59 -2 0 -24
-10 -49 -22z"/>
<path d="M1853 1158 l-33 -11 0 -201 c-1 -137 -5 -212 -14 -237 -45 -126 -185
-191 -325 -150 -61 18 -137 95 -152 155 l-11 46 -28 -44 c-90 -141 -229 -236
-422 -288 -110 -29 -297 -31 -408 -4 -95 24 -182 63 -243 109 l-47 37 0 -125
0 -125 1410 0 c776 0 1410 1 1410 3 0 2 -11 18 -25 37 -14 19 -30 52 -36 72
-9 35 -12 38 -37 31 -54 -16 -111 -7 -162 25 l-50 31 -42 -19 c-71 -31 -196
-52 -263 -45 -290 30 -465 255 -465 597 0 128 2 125 -57 106z"/>
<path d="M601 1055 c16 -16 34 -25 45 -23 14 3 8 10 -26 27 l-45 23 26 -27z"/>
<path d="M7972 982 c-6 -20 -10 -37 -9 -39 2 -1 24 5 49 15 l46 17 -38 21 -38
21 -10 -35z"/>
<path d="M5490 868 c-65 -116 -219 -222 -365 -253 -88 -18 -122 -18 -210 0
-110 23 -208 77 -287 157 l-68 69 0 -118 c-1 -70 -6 -133 -14 -154 -45 -126
-185 -191 -325 -150 -53 15 -139 97 -147 141 -4 16 -9 30 -13 30 -3 0 -21 -23
-40 -50 -43 -64 -138 -152 -204 -190 l-52 -30 1323 0 1322 0 0 -125 0 -125
2646 0 2646 0 -40 45 c-78 88 -81 214 -8 307 l24 31 -57 42 c-58 43 -113 103
-146 161 l-18 32 -31 -18 c-68 -39 -147 -33 -204 15 l-29 24 -40 -20 c-22 -11
-76 -27 -119 -36 -65 -13 -92 -14 -154 -5 -41 6 -83 14 -92 17 -13 5 -18 2
-18 -12 0 -54 -33 -127 -78 -172 -74 -74 -112 -81 -438 -81 -318 0 -349 6
-425 77 -27 25 -53 61 -60 81 -6 21 -13 40 -15 43 -2 3 -30 -20 -63 -52 -34
-32 -86 -69 -117 -84 -81 -39 -194 -60 -254 -48 l-48 10 -6 -56 c-10 -97 -25
-131 -79 -186 -37 -36 -66 -55 -100 -64 -98 -28 -214 8 -271 82 -43 56 -56
110 -56 224 l0 105 -35 -30 c-166 -147 -480 -172 -666 -54 -57 37 -123 104
-154 157 -28 50 -49 136 -40 166 6 18 -4 13 -46 -25 -68 -59 -174 -112 -264
-131 -87 -18 -123 -18 -206 -1 -92 20 -163 52 -236 108 l-62 47 -78 -81 c-43
-44 -106 -100 -140 -124 -285 -205 -685 -212 -988 -17 -93 60 -219 191 -275
286 -25 42 -48 77 -51 77 -3 0 -16 -19 -29 -42z"/>
<path d="M12285 89 l-30 -19 38 0 c30 0 37 4 37 20 0 24 -6 24 -45 -1z"/>
</g>
</svg>
